<svg width="1280" height="100" viewBox="0 0 1280 100" fill="none" xmlns="http://www.w3.org/2000/svg">
<rect x="0.5" y="0.5" width="1279" height="99" fill="#2B2B2B"/>
<rect x="0.5" y="0.5" width="1279" height="99" stroke="black"/>
<rect x="1055" y="25" width="175" height="50" rx="15" fill="#BFAFF2"/>
<rect x="1055" y="25" width="175" height="50" rx="15" fill="#BFAFF2"/>
<path d="M1119.43 54.668H1123.82V56H1117.79V43.454H1119.43V54.668ZM1129.86 56.162C1128.94 56.162 1128.1 55.952 1127.34 55.532C1126.6 55.112 1126.01 54.518 1125.58 53.75C1125.16 52.97 1124.95 52.07 1124.95 51.05C1124.95 50.042 1125.16 49.154 1125.6 48.386C1126.04 47.606 1126.64 47.012 1127.4 46.604C1128.15 46.184 1129 45.974 1129.93 45.974C1130.87 45.974 1131.72 46.184 1132.47 46.604C1133.23 47.012 1133.82 47.6 1134.25 48.368C1134.7 49.136 1134.92 50.03 1134.92 51.05C1134.92 52.07 1134.69 52.97 1134.24 53.75C1133.79 54.518 1133.19 55.112 1132.42 55.532C1131.65 55.952 1130.8 56.162 1129.86 56.162ZM1129.86 54.722C1130.45 54.722 1131 54.584 1131.52 54.308C1132.03 54.032 1132.45 53.618 1132.76 53.066C1133.08 52.514 1133.25 51.842 1133.25 51.05C1133.25 50.258 1133.09 49.586 1132.78 49.034C1132.47 48.482 1132.06 48.074 1131.55 47.81C1131.05 47.534 1130.5 47.396 1129.92 47.396C1129.32 47.396 1128.76 47.534 1128.26 47.81C1127.77 48.074 1127.37 48.482 1127.07 49.034C1126.77 49.586 1126.62 50.258 1126.62 51.05C1126.62 51.854 1126.77 52.532 1127.05 53.084C1127.35 53.636 1127.75 54.05 1128.24 54.326C1128.73 54.59 1129.27 54.722 1129.86 54.722ZM1141.14 45.974C1141.99 45.974 1142.74 46.16 1143.37 46.532C1144.02 46.904 1144.5 47.372 1144.81 47.936V46.136H1146.47V56.216C1146.47 57.116 1146.28 57.914 1145.89 58.61C1145.51 59.318 1144.96 59.87 1144.24 60.266C1143.53 60.662 1142.7 60.86 1141.75 60.86C1140.46 60.86 1139.38 60.554 1138.51 59.942C1137.65 59.33 1137.14 58.496 1136.98 57.44H1138.6C1138.78 58.04 1139.16 58.52 1139.72 58.88C1140.28 59.252 1140.96 59.438 1141.75 59.438C1142.65 59.438 1143.39 59.156 1143.95 58.592C1144.53 58.028 1144.81 57.236 1144.81 56.216V54.146C1144.49 54.722 1144.01 55.202 1143.37 55.586C1142.74 55.97 1141.99 56.162 1141.14 56.162C1140.27 56.162 1139.47 55.946 1138.75 55.514C1138.04 55.082 1137.48 54.476 1137.07 53.696C1136.67 52.916 1136.46 52.028 1136.46 51.032C1136.46 50.024 1136.67 49.142 1137.07 48.386C1137.48 47.618 1138.04 47.024 1138.75 46.604C1139.47 46.184 1140.27 45.974 1141.14 45.974ZM1144.81 51.05C1144.81 50.306 1144.66 49.658 1144.36 49.106C1144.06 48.554 1143.66 48.134 1143.14 47.846C1142.64 47.546 1142.08 47.396 1141.47 47.396C1140.85 47.396 1140.3 47.54 1139.79 47.828C1139.29 48.116 1138.89 48.536 1138.59 49.088C1138.29 49.64 1138.14 50.288 1138.14 51.032C1138.14 51.788 1138.29 52.448 1138.59 53.012C1138.89 53.564 1139.29 53.99 1139.79 54.29C1140.3 54.578 1140.85 54.722 1141.47 54.722C1142.08 54.722 1142.64 54.578 1143.14 54.29C1143.66 53.99 1144.06 53.564 1144.36 53.012C1144.66 52.448 1144.81 51.794 1144.81 51.05ZM1154.88 44.534C1154.57 44.534 1154.31 44.426 1154.09 44.21C1153.88 43.994 1153.77 43.73 1153.77 43.418C1153.77 43.106 1153.88 42.842 1154.09 42.626C1154.31 42.41 1154.57 42.302 1154.88 42.302C1155.18 42.302 1155.44 42.41 1155.64 42.626C1155.86 42.842 1155.96 43.106 1155.96 43.418C1155.96 43.73 1155.86 43.994 1155.64 44.21C1155.44 44.426 1155.18 44.534 1154.88 44.534ZM1155.68 46.136V56H1154.04V46.136H1155.68ZM1163.27 45.956C1164.47 45.956 1165.45 46.322 1166.19 47.054C1166.93 47.774 1167.31 48.818 1167.31 50.186V56H1165.69V50.42C1165.69 49.436 1165.44 48.686 1164.95 48.17C1164.46 47.642 1163.78 47.378 1162.93 47.378C1162.07 47.378 1161.38 47.648 1160.86 48.188C1160.36 48.728 1160.11 49.514 1160.11 50.546V56H1158.47V46.136H1160.11V47.54C1160.43 47.036 1160.87 46.646 1161.42 46.37C1161.98 46.094 1162.6 45.956 1163.27 45.956Z" fill="#333333"/>
<path d="M963.216 56.126C962.388 56.126 961.644 55.982 960.984 55.694C960.336 55.394 959.826 54.986 959.454 54.47C959.082 53.942 958.89 53.336 958.878 52.652H960.624C960.684 53.24 960.924 53.738 961.344 54.146C961.776 54.542 962.4 54.74 963.216 54.74C963.996 54.74 964.608 54.548 965.052 54.164C965.508 53.768 965.736 53.264 965.736 52.652C965.736 52.172 965.604 51.782 965.34 51.482C965.076 51.182 964.746 50.954 964.35 50.798C963.954 50.642 963.42 50.474 962.748 50.294C961.92 50.078 961.254 49.862 960.75 49.646C960.258 49.43 959.832 49.094 959.472 48.638C959.124 48.17 958.95 47.546 958.95 46.766C958.95 46.082 959.124 45.476 959.472 44.948C959.82 44.42 960.306 44.012 960.93 43.724C961.566 43.436 962.292 43.292 963.108 43.292C964.284 43.292 965.244 43.586 965.988 44.174C966.744 44.762 967.17 45.542 967.266 46.514H965.466C965.406 46.034 965.154 45.614 964.71 45.254C964.266 44.882 963.678 44.696 962.946 44.696C962.262 44.696 961.704 44.876 961.272 45.236C960.84 45.584 960.624 46.076 960.624 46.712C960.624 47.168 960.75 47.54 961.002 47.828C961.266 48.116 961.584 48.338 961.956 48.494C962.34 48.638 962.874 48.806 963.558 48.998C964.386 49.226 965.052 49.454 965.556 49.682C966.06 49.898 966.492 50.24 966.852 50.708C967.212 51.164 967.392 51.788 967.392 52.58C967.392 53.192 967.23 53.768 966.906 54.308C966.582 54.848 966.102 55.286 965.466 55.622C964.83 55.958 964.08 56.126 963.216 56.126ZM970.648 44.534C970.336 44.534 970.072 44.426 969.856 44.21C969.64 43.994 969.532 43.73 969.532 43.418C969.532 43.106 969.64 42.842 969.856 42.626C970.072 42.41 970.336 42.302 970.648 42.302C970.948 42.302 971.2 42.41 971.404 42.626C971.62 42.842 971.728 43.106 971.728 43.418C971.728 43.73 971.62 43.994 971.404 44.21C971.2 44.426 970.948 44.534 970.648 44.534ZM971.44 46.136V56H969.802V46.136H971.44ZM978.3 45.974C979.152 45.974 979.896 46.16 980.532 46.532C981.18 46.904 981.66 47.372 981.972 47.936V46.136H983.628V56.216C983.628 57.116 983.436 57.914 983.052 58.61C982.668 59.318 982.116 59.87 981.396 60.266C980.688 60.662 979.86 60.86 978.912 60.86C977.616 60.86 976.536 60.554 975.672 59.942C974.808 59.33 974.298 58.496 974.142 57.44H975.762C975.942 58.04 976.314 58.52 976.878 58.88C977.442 59.252 978.12 59.438 978.912 59.438C979.812 59.438 980.544 59.156 981.108 58.592C981.684 58.028 981.972 57.236 981.972 56.216V54.146C981.648 54.722 981.168 55.202 980.532 55.586C979.896 55.97 979.152 56.162 978.3 56.162C977.424 56.162 976.626 55.946 975.906 55.514C975.198 55.082 974.64 54.476 974.232 53.696C973.824 52.916 973.62 52.028 973.62 51.032C973.62 50.024 973.824 49.142 974.232 48.386C974.64 47.618 975.198 47.024 975.906 46.604C976.626 46.184 977.424 45.974 978.3 45.974ZM981.972 51.05C981.972 50.306 981.822 49.658 981.522 49.106C981.222 48.554 980.814 48.134 980.298 47.846C979.794 47.546 979.236 47.396 978.624 47.396C978.012 47.396 977.454 47.54 976.95 47.828C976.446 48.116 976.044 48.536 975.744 49.088C975.444 49.64 975.294 50.288 975.294 51.032C975.294 51.788 975.444 52.448 975.744 53.012C976.044 53.564 976.446 53.99 976.95 54.29C977.454 54.578 978.012 54.722 978.624 54.722C979.236 54.722 979.794 54.578 980.298 54.29C980.814 53.99 981.222 53.564 981.522 53.012C981.822 52.448 981.972 51.794 981.972 51.05ZM991.202 45.956C992.402 45.956 993.374 46.322 994.118 47.054C994.862 47.774 995.234 48.818 995.234 50.186V56H993.614V50.42C993.614 49.436 993.368 48.686 992.876 48.17C992.384 47.642 991.712 47.378 990.86 47.378C989.996 47.378 989.306 47.648 988.79 48.188C988.286 48.728 988.034 49.514 988.034 50.546V56H986.396V46.136H988.034V47.54C988.358 47.036 988.796 46.646 989.348 46.37C989.912 46.094 990.53 45.956 991.202 45.956ZM1011.46 46.136V56H1009.82V54.542C1009.51 55.046 1009.07 55.442 1008.5 55.73C1007.95 56.006 1007.34 56.144 1006.67 56.144C1005.9 56.144 1005.21 55.988 1004.6 55.676C1003.99 55.352 1003.5 54.872 1003.14 54.236C1002.79 53.6 1002.62 52.826 1002.62 51.914V46.136H1004.24V51.698C1004.24 52.67 1004.48 53.42 1004.98 53.948C1005.47 54.464 1006.14 54.722 1006.99 54.722C1007.87 54.722 1008.56 54.452 1009.06 53.912C1009.57 53.372 1009.82 52.586 1009.82 51.554V46.136H1011.46ZM1015.86 47.954C1016.18 47.39 1016.66 46.922 1017.3 46.55C1017.95 46.166 1018.7 45.974 1019.55 45.974C1020.43 45.974 1021.22 46.184 1021.93 46.604C1022.65 47.024 1023.21 47.618 1023.62 48.386C1024.03 49.142 1024.23 50.024 1024.23 51.032C1024.23 52.028 1024.03 52.916 1023.62 53.696C1023.21 54.476 1022.65 55.082 1021.93 55.514C1021.22 55.946 1020.43 56.162 1019.55 56.162C1018.71 56.162 1017.97 55.976 1017.32 55.604C1016.68 55.22 1016.2 54.746 1015.86 54.182V60.68H1014.22V46.136H1015.86V47.954ZM1022.56 51.032C1022.56 50.288 1022.41 49.64 1022.11 49.088C1021.81 48.536 1021.4 48.116 1020.88 47.828C1020.38 47.54 1019.82 47.396 1019.21 47.396C1018.61 47.396 1018.05 47.546 1017.53 47.846C1017.03 48.134 1016.62 48.56 1016.31 49.124C1016.01 49.676 1015.86 50.318 1015.86 51.05C1015.86 51.794 1016.01 52.448 1016.31 53.012C1016.62 53.564 1017.03 53.99 1017.53 54.29C1018.05 54.578 1018.61 54.722 1019.21 54.722C1019.82 54.722 1020.38 54.578 1020.88 54.29C1021.4 53.99 1021.81 53.564 1022.11 53.012C1022.41 52.448 1022.56 51.788 1022.56 51.032Z" fill="white"/>
<path d="M79.048 41.248L74.368 58H70.408L67.264 46.072L63.976 58L60.04 58.024L55.528 41.248H59.128L62.08 54.256L65.488 41.248H69.232L72.448 54.184L75.424 41.248H79.048ZM80.3779 51.304C80.3779 49.96 80.6419 48.768 81.1699 47.728C81.7139 46.688 82.4419 45.888 83.3539 45.328C84.2819 44.768 85.3139 44.488 86.4499 44.488C87.4419 44.488 88.3059 44.688 89.0419 45.088C89.7939 45.488 90.3939 45.992 90.8419 46.6V44.704H94.2259V58H90.8419V56.056C90.4099 56.68 89.8099 57.2 89.0419 57.616C88.2899 58.016 87.4179 58.216 86.4259 58.216C85.3059 58.216 84.2819 57.928 83.3539 57.352C82.4419 56.776 81.7139 55.968 81.1699 54.928C80.6419 53.872 80.3779 52.664 80.3779 51.304ZM90.8419 51.352C90.8419 50.536 90.6819 49.84 90.3619 49.264C90.0419 48.672 89.6099 48.224 89.0659 47.92C88.5219 47.6 87.9379 47.44 87.3139 47.44C86.6899 47.44 86.1139 47.592 85.5859 47.896C85.0579 48.2 84.6259 48.648 84.2899 49.24C83.9699 49.816 83.8099 50.504 83.8099 51.304C83.8099 52.104 83.9699 52.808 84.2899 53.416C84.6259 54.008 85.0579 54.464 85.5859 54.784C86.1299 55.104 86.7059 55.264 87.3139 55.264C87.9379 55.264 88.5219 55.112 89.0659 54.808C89.6099 54.488 90.0419 54.04 90.3619 53.464C90.6819 52.872 90.8419 52.168 90.8419 51.352ZM100.868 40.24V58H97.5076V40.24H100.868ZM107.547 40.24V58H104.187V40.24H107.547ZM123.227 51.064C123.227 51.544 123.195 51.976 123.131 52.36H113.411C113.491 53.32 113.827 54.072 114.419 54.616C115.011 55.16 115.739 55.432 116.603 55.432C117.851 55.432 118.739 54.896 119.267 53.824H122.891C122.507 55.104 121.771 56.16 120.683 56.992C119.595 57.808 118.259 58.216 116.675 58.216C115.395 58.216 114.243 57.936 113.219 57.376C112.211 56.8 111.419 55.992 110.843 54.952C110.283 53.912 110.003 52.712 110.003 51.352C110.003 49.976 110.283 48.768 110.843 47.728C111.403 46.688 112.187 45.888 113.195 45.328C114.203 44.768 115.363 44.488 116.675 44.488C117.939 44.488 119.067 44.76 120.059 45.304C121.067 45.848 121.843 46.624 122.387 47.632C122.947 48.624 123.227 49.768 123.227 51.064ZM119.747 50.104C119.731 49.24 119.419 48.552 118.811 48.04C118.203 47.512 117.459 47.248 116.579 47.248C115.747 47.248 115.043 47.504 114.467 48.016C113.907 48.512 113.563 49.208 113.435 50.104H119.747ZM129.591 47.464V53.896C129.591 54.344 129.695 54.672 129.903 54.88C130.127 55.072 130.495 55.168 131.007 55.168H132.567V58H130.455C127.623 58 126.207 56.624 126.207 53.872V47.464H124.623V44.704H126.207V41.416H129.591V44.704H132.567V47.464H129.591Z" fill="white"/>
</svg>
