<svg width="599" height="32" viewBox="0 0 599 32" fill="none" xmlns="http://www.w3.org/2000/svg">
<path d="M43.036 9.436L39.526 22H36.556L34.198 13.054L31.732 22L28.78 22.018L25.396 9.436H28.096L30.31 19.192L32.866 9.436H35.674L38.086 19.138L40.318 9.436H43.036ZM44.0335 16.978C44.0335 15.97 44.2315 15.076 44.6275 14.296C45.0355 13.516 45.5815 12.916 46.2655 12.496C46.9615 12.076 47.7355 11.866 48.5875 11.866C49.3315 11.866 49.9795 12.016 50.5315 12.316C51.0955 12.616 51.5455 12.994 51.8815 13.45V12.028H54.4195V22H51.8815V20.542C51.5575 21.01 51.1075 21.4 50.5315 21.712C49.9675 22.012 49.3135 22.162 48.5695 22.162C47.7295 22.162 46.9615 21.946 46.2655 21.514C45.5815 21.082 45.0355 20.476 44.6275 19.696C44.2315 18.904 44.0335 17.998 44.0335 16.978ZM51.8815 17.014C51.8815 16.402 51.7615 15.88 51.5215 15.448C51.2815 15.004 50.9575 14.668 50.5495 14.44C50.1415 14.2 49.7035 14.08 49.2355 14.08C48.7675 14.08 48.3355 14.194 47.9395 14.422C47.5435 14.65 47.2195 14.986 46.9675 15.43C46.7275 15.862 46.6075 16.378 46.6075 16.978C46.6075 17.578 46.7275 18.106 46.9675 18.562C47.2195 19.006 47.5435 19.348 47.9395 19.588C48.3475 19.828 48.7795 19.948 49.2355 19.948C49.7035 19.948 50.1415 19.834 50.5495 19.606C50.9575 19.366 51.2815 19.03 51.5215 18.598C51.7615 18.154 51.8815 17.626 51.8815 17.014ZM59.4007 8.68V22H56.8807V8.68H59.4007ZM64.4104 8.68V22H61.8904V8.68H64.4104ZM76.1702 16.798C76.1702 17.158 76.1462 17.482 76.0982 17.77H68.8082C68.8682 18.49 69.1202 19.054 69.5642 19.462C70.0082 19.87 70.5542 20.074 71.2022 20.074C72.1382 20.074 72.8042 19.672 73.2002 18.868H75.9182C75.6302 19.828 75.0782 20.62 74.2622 21.244C73.4462 21.856 72.4442 22.162 71.2562 22.162C70.2962 22.162 69.4322 21.952 68.6642 21.532C67.9082 21.1 67.3142 20.494 66.8822 19.714C66.4622 18.934 66.2522 18.034 66.2522 17.014C66.2522 15.982 66.4622 15.076 66.8822 14.296C67.3022 13.516 67.8902 12.916 68.6462 12.496C69.4022 12.076 70.2722 11.866 71.2562 11.866C72.2042 11.866 73.0502 12.07 73.7942 12.478C74.5502 12.886 75.1322 13.468 75.5402 14.224C75.9602 14.968 76.1702 15.826 76.1702 16.798ZM73.5602 16.078C73.5482 15.43 73.3142 14.914 72.8582 14.53C72.4022 14.134 71.8442 13.936 71.1842 13.936C70.5602 13.936 70.0322 14.128 69.6002 14.512C69.1802 14.884 68.9222 15.406 68.8262 16.078H73.5602ZM80.9436 14.098V18.922C80.9436 19.258 81.0216 19.504 81.1776 19.66C81.3456 19.804 81.6216 19.876 82.0056 19.876H83.1756V22H81.5916C79.4676 22 78.4056 20.968 78.4056 18.904V14.098H77.2176V12.028H78.4056V9.562H80.9436V12.028H83.1756V14.098H80.9436ZM89.7812 19.156C90.9332 18.196 91.8512 17.398 92.5352 16.762C93.2192 16.114 93.7892 15.442 94.2452 14.746C94.7012 14.05 94.9292 13.366 94.9292 12.694C94.9292 12.082 94.7852 11.602 94.4972 11.254C94.2092 10.906 93.7652 10.732 93.1652 10.732C92.5652 10.732 92.1032 10.936 91.7792 11.344C91.4552 11.74 91.2872 12.286 91.2752 12.982H88.8272C88.8752 11.542 89.3012 10.45 90.1052 9.706C90.9212 8.962 91.9532 8.59 93.2012 8.59C94.5692 8.59 95.6192 8.956 96.3512 9.688C97.0832 10.408 97.4492 11.362 97.4492 12.55C97.4492 13.486 97.1972 14.38 96.6932 15.232C96.1892 16.084 95.6132 16.828 94.9652 17.464C94.3172 18.088 93.4712 18.844 92.4272 19.732H97.7372V21.82H88.8452V19.948L89.7812 19.156ZM99.3251 15.268C99.3251 13.192 99.6971 11.566 100.441 10.39C101.197 9.214 102.445 8.626 104.185 8.626C105.925 8.626 107.167 9.214 107.911 10.39C108.667 11.566 109.045 13.192 109.045 15.268C109.045 17.356 108.667 18.994 107.911 20.182C107.167 21.37 105.925 21.964 104.185 21.964C102.445 21.964 101.197 21.37 100.441 20.182C99.6971 18.994 99.3251 17.356 99.3251 15.268ZM106.561 15.268C106.561 14.38 106.501 13.636 106.381 13.036C106.273 12.424 106.045 11.926 105.697 11.542C105.361 11.158 104.857 10.966 104.185 10.966C103.513 10.966 103.003 11.158 102.655 11.542C102.319 11.926 102.091 12.424 101.971 13.036C101.863 13.636 101.809 14.38 101.809 15.268C101.809 16.18 101.863 16.948 101.971 17.572C102.079 18.184 102.307 18.682 102.655 19.066C103.003 19.438 103.513 19.624 104.185 19.624C104.857 19.624 105.367 19.438 105.715 19.066C106.063 18.682 106.291 18.184 106.399 17.572C106.507 16.948 106.561 16.18 106.561 15.268ZM111.754 19.156C112.906 18.196 113.824 17.398 114.508 16.762C115.192 16.114 115.762 15.442 116.218 14.746C116.674 14.05 116.902 13.366 116.902 12.694C116.902 12.082 116.758 11.602 116.47 11.254C116.182 10.906 115.738 10.732 115.138 10.732C114.538 10.732 114.076 10.936 113.752 11.344C113.428 11.74 113.26 12.286 113.248 12.982H110.8C110.848 11.542 111.274 10.45 112.078 9.706C112.894 8.962 113.926 8.59 115.174 8.59C116.542 8.59 117.592 8.956 118.324 9.688C119.056 10.408 119.422 11.362 119.422 12.55C119.422 13.486 119.17 14.38 118.666 15.232C118.162 16.084 117.586 16.828 116.938 17.464C116.29 18.088 115.444 18.844 114.4 19.732H119.71V21.82H110.818V19.948L111.754 19.156ZM122.09 19.156C123.242 18.196 124.16 17.398 124.844 16.762C125.528 16.114 126.098 15.442 126.554 14.746C127.01 14.05 127.238 13.366 127.238 12.694C127.238 12.082 127.094 11.602 126.806 11.254C126.518 10.906 126.074 10.732 125.474 10.732C124.874 10.732 124.412 10.936 124.088 11.344C123.764 11.74 123.596 12.286 123.584 12.982H121.136C121.184 11.542 121.61 10.45 122.414 9.706C123.23 8.962 124.262 8.59 125.51 8.59C126.878 8.59 127.928 8.956 128.66 9.688C129.392 10.408 129.758 11.362 129.758 12.55C129.758 13.486 129.506 14.38 129.002 15.232C128.498 16.084 127.922 16.828 127.274 17.464C126.626 18.088 125.78 18.844 124.736 19.732H130.046V21.82H121.154V19.948L122.09 19.156Z" fill="white"/>
<path d="M7.074 9.256C8.298 9.256 9.384 9.532 10.332 10.084C11.292 10.624 12.036 11.386 12.564 12.37C13.104 13.342 13.374 14.452 13.374 15.7C13.374 16.948 13.104 18.064 12.564 19.048C12.036 20.02 11.292 20.782 10.332 21.334C9.384 21.874 8.298 22.144 7.074 22.144C5.838 22.144 4.74 21.874 3.78 21.334C2.832 20.782 2.088 20.02 1.548 19.048C1.02 18.064 0.756 16.948 0.756 15.7C0.756 14.452 1.02 13.342 1.548 12.37C2.088 11.386 2.832 10.624 3.78 10.084C4.74 9.532 5.838 9.256 7.074 9.256ZM7.074 10.174C5.994 10.174 5.052 10.402 4.248 10.858C3.444 11.302 2.826 11.944 2.394 12.784C1.962 13.612 1.746 14.584 1.746 15.7C1.746 16.804 1.962 17.776 2.394 18.616C2.826 19.444 3.444 20.092 4.248 20.56C5.052 21.016 5.994 21.244 7.074 21.244C8.142 21.244 9.078 21.016 9.882 20.56C10.686 20.092 11.304 19.444 11.736 18.616C12.168 17.776 12.384 16.804 12.384 15.7C12.384 14.584 12.168 13.612 11.736 12.784C11.304 11.944 10.686 11.302 9.882 10.858C9.09 10.402 8.154 10.174 7.074 10.174ZM7.056 11.596C6.3 11.596 5.622 11.764 5.022 12.1C4.422 12.436 3.948 12.916 3.6 13.54C3.264 14.152 3.096 14.866 3.096 15.682C3.096 16.498 3.264 17.218 3.6 17.842C3.948 18.466 4.422 18.946 5.022 19.282C5.622 19.618 6.3 19.786 7.056 19.786C7.98 19.786 8.778 19.534 9.45 19.03C10.122 18.514 10.56 17.836 10.764 16.996H8.55C8.418 17.332 8.226 17.59 7.974 17.77C7.734 17.95 7.41 18.04 7.002 18.04C6.45 18.04 6.012 17.842 5.688 17.446C5.376 17.038 5.22 16.45 5.22 15.682C5.22 14.914 5.376 14.332 5.688 13.936C6.012 13.54 6.45 13.342 7.002 13.342C7.386 13.342 7.71 13.432 7.974 13.612C8.25 13.792 8.442 14.05 8.55 14.386H10.764C10.56 13.522 10.122 12.844 9.45 12.352C8.79 11.848 7.992 11.596 7.056 11.596Z" fill="white"/>
<path d="M171.404 13.324C171.404 13.996 171.242 14.626 170.918 15.214C170.606 15.802 170.108 16.276 169.424 16.636C168.752 16.996 167.9 17.176 166.868 17.176H164.762V22H162.242V9.436H166.868C167.84 9.436 168.668 9.604 169.352 9.94C170.036 10.276 170.546 10.738 170.882 11.326C171.23 11.914 171.404 12.58 171.404 13.324ZM166.76 15.142C167.456 15.142 167.972 14.986 168.308 14.674C168.644 14.35 168.812 13.9 168.812 13.324C168.812 12.1 168.128 11.488 166.76 11.488H164.762V15.142H166.76ZM175.713 13.576C176.037 13.048 176.457 12.634 176.973 12.334C177.501 12.034 178.101 11.884 178.773 11.884V14.53H178.107C177.315 14.53 176.715 14.716 176.307 15.088C175.911 15.46 175.713 16.108 175.713 17.032V22H173.193V12.028H175.713V13.576ZM181.749 10.84C181.305 10.84 180.933 10.702 180.633 10.426C180.345 10.138 180.201 9.784 180.201 9.364C180.201 8.944 180.345 8.596 180.633 8.32C180.933 8.032 181.305 7.888 181.749 7.888C182.193 7.888 182.559 8.032 182.847 8.32C183.147 8.596 183.297 8.944 183.297 9.364C183.297 9.784 183.147 10.138 182.847 10.426C182.559 10.702 182.193 10.84 181.749 10.84ZM182.991 12.028V22H180.471V12.028H182.991ZM189.638 19.678L192.158 12.028H194.84L191.15 22H188.09L184.418 12.028H187.118L189.638 19.678ZM195.608 16.978C195.608 15.97 195.806 15.076 196.202 14.296C196.61 13.516 197.156 12.916 197.84 12.496C198.536 12.076 199.31 11.866 200.162 11.866C200.906 11.866 201.554 12.016 202.106 12.316C202.67 12.616 203.12 12.994 203.456 13.45V12.028H205.994V22H203.456V20.542C203.132 21.01 202.682 21.4 202.106 21.712C201.542 22.012 200.888 22.162 200.144 22.162C199.304 22.162 198.536 21.946 197.84 21.514C197.156 21.082 196.61 20.476 196.202 19.696C195.806 18.904 195.608 17.998 195.608 16.978ZM203.456 17.014C203.456 16.402 203.336 15.88 203.096 15.448C202.856 15.004 202.532 14.668 202.124 14.44C201.716 14.2 201.278 14.08 200.81 14.08C200.342 14.08 199.91 14.194 199.514 14.422C199.118 14.65 198.794 14.986 198.542 15.43C198.302 15.862 198.182 16.378 198.182 16.978C198.182 17.578 198.302 18.106 198.542 18.562C198.794 19.006 199.118 19.348 199.514 19.588C199.922 19.828 200.354 19.948 200.81 19.948C201.278 19.948 201.716 19.834 202.124 19.606C202.532 19.366 202.856 19.03 203.096 18.598C203.336 18.154 203.456 17.626 203.456 17.014ZM207.807 17.014C207.807 15.982 208.017 15.082 208.437 14.314C208.857 13.534 209.439 12.934 210.183 12.514C210.927 12.082 211.779 11.866 212.739 11.866C213.975 11.866 214.995 12.178 215.799 12.802C216.615 13.414 217.161 14.278 217.437 15.394H214.719C214.575 14.962 214.329 14.626 213.981 14.386C213.645 14.134 213.225 14.008 212.721 14.008C212.001 14.008 211.431 14.272 211.011 14.8C210.591 15.316 210.381 16.054 210.381 17.014C210.381 17.962 210.591 18.7 211.011 19.228C211.431 19.744 212.001 20.002 212.721 20.002C213.741 20.002 214.407 19.546 214.719 18.634H217.437C217.161 19.714 216.615 20.572 215.799 21.208C214.983 21.844 213.963 22.162 212.739 22.162C211.779 22.162 210.927 21.952 210.183 21.532C209.439 21.1 208.857 20.5 208.437 19.732C208.017 18.952 207.807 18.046 207.807 17.014ZM228.823 12.028L222.649 26.716H219.967L222.127 21.748L218.131 12.028H220.957L223.531 18.994L226.141 12.028H228.823ZM236.991 13.468C237.315 13.012 237.759 12.634 238.323 12.334C238.899 12.022 239.553 11.866 240.285 11.866C241.137 11.866 241.905 12.076 242.589 12.496C243.285 12.916 243.831 13.516 244.227 14.296C244.635 15.064 244.839 15.958 244.839 16.978C244.839 17.998 244.635 18.904 244.227 19.696C243.831 20.476 243.285 21.082 242.589 21.514C241.905 21.946 241.137 22.162 240.285 22.162C239.553 22.162 238.905 22.012 238.341 21.712C237.789 21.412 237.339 21.034 236.991 20.578V26.752H234.471V12.028H236.991V13.468ZM242.265 16.978C242.265 16.378 242.139 15.862 241.887 15.43C241.647 14.986 241.323 14.65 240.915 14.422C240.519 14.194 240.087 14.08 239.619 14.08C239.163 14.08 238.731 14.2 238.323 14.44C237.927 14.668 237.603 15.004 237.351 15.448C237.111 15.892 236.991 16.414 236.991 17.014C236.991 17.614 237.111 18.136 237.351 18.58C237.603 19.024 237.927 19.366 238.323 19.606C238.731 19.834 239.163 19.948 239.619 19.948C240.087 19.948 240.519 19.828 240.915 19.588C241.323 19.348 241.647 19.006 241.887 18.562C242.139 18.118 242.265 17.59 242.265 16.978ZM251.098 22.162C250.138 22.162 249.274 21.952 248.506 21.532C247.738 21.1 247.132 20.494 246.688 19.714C246.256 18.934 246.04 18.034 246.04 17.014C246.04 15.994 246.262 15.094 246.706 14.314C247.162 13.534 247.78 12.934 248.56 12.514C249.34 12.082 250.21 11.866 251.17 11.866C252.13 11.866 253 12.082 253.78 12.514C254.56 12.934 255.172 13.534 255.616 14.314C256.072 15.094 256.3 15.994 256.3 17.014C256.3 18.034 256.066 18.934 255.598 19.714C255.142 20.494 254.518 21.1 253.726 21.532C252.946 21.952 252.07 22.162 251.098 22.162ZM251.098 19.966C251.554 19.966 251.98 19.858 252.376 19.642C252.784 19.414 253.108 19.078 253.348 18.634C253.588 18.19 253.708 17.65 253.708 17.014C253.708 16.066 253.456 15.34 252.952 14.836C252.46 14.32 251.854 14.062 251.134 14.062C250.414 14.062 249.808 14.32 249.316 14.836C248.836 15.34 248.596 16.066 248.596 17.014C248.596 17.962 248.83 18.694 249.298 19.21C249.778 19.714 250.378 19.966 251.098 19.966ZM260.668 8.68V22H258.148V8.68H260.668ZM264.436 10.84C263.992 10.84 263.62 10.702 263.32 10.426C263.032 10.138 262.888 9.784 262.888 9.364C262.888 8.944 263.032 8.596 263.32 8.32C263.62 8.032 263.992 7.888 264.436 7.888C264.88 7.888 265.246 8.032 265.534 8.32C265.834 8.596 265.984 8.944 265.984 9.364C265.984 9.784 265.834 10.138 265.534 10.426C265.246 10.702 264.88 10.84 264.436 10.84ZM265.678 12.028V22H263.158V12.028H265.678ZM267.52 17.014C267.52 15.982 267.73 15.082 268.15 14.314C268.57 13.534 269.152 12.934 269.896 12.514C270.64 12.082 271.492 11.866 272.452 11.866C273.688 11.866 274.708 12.178 275.512 12.802C276.328 13.414 276.874 14.278 277.15 15.394H274.432C274.288 14.962 274.042 14.626 273.694 14.386C273.358 14.134 272.938 14.008 272.434 14.008C271.714 14.008 271.144 14.272 270.724 14.8C270.304 15.316 270.094 16.054 270.094 17.014C270.094 17.962 270.304 18.7 270.724 19.228C271.144 19.744 271.714 20.002 272.434 20.002C273.454 20.002 274.12 19.546 274.432 18.634H277.15C276.874 19.714 276.328 20.572 275.512 21.208C274.696 21.844 273.676 22.162 272.452 22.162C271.492 22.162 270.64 21.952 269.896 21.532C269.152 21.1 268.57 20.5 268.15 19.732C267.73 18.952 267.52 18.046 267.52 17.014ZM288.536 12.028L282.362 26.716H279.68L281.84 21.748L277.844 12.028H280.67L283.244 18.994L285.854 12.028H288.536Z" fill="white"/>
<path d="M319.63 15.7C319.63 14.464 319.906 13.36 320.458 12.388C321.022 11.404 321.784 10.642 322.744 10.102C323.716 9.55 324.802 9.274 326.002 9.274C327.406 9.274 328.636 9.634 329.692 10.354C330.748 11.074 331.486 12.07 331.906 13.342H329.008C328.72 12.742 328.312 12.292 327.784 11.992C327.268 11.692 326.668 11.542 325.984 11.542C325.252 11.542 324.598 11.716 324.022 12.064C323.458 12.4 323.014 12.88 322.69 13.504C322.378 14.128 322.222 14.86 322.222 15.7C322.222 16.528 322.378 17.26 322.69 17.896C323.014 18.52 323.458 19.006 324.022 19.354C324.598 19.69 325.252 19.858 325.984 19.858C326.668 19.858 327.268 19.708 327.784 19.408C328.312 19.096 328.72 18.64 329.008 18.04H331.906C331.486 19.324 330.748 20.326 329.692 21.046C328.648 21.754 327.418 22.108 326.002 22.108C324.802 22.108 323.716 21.838 322.744 21.298C321.784 20.746 321.022 19.984 320.458 19.012C319.906 18.04 319.63 16.936 319.63 15.7ZM338.486 22.162C337.526 22.162 336.662 21.952 335.894 21.532C335.126 21.1 334.52 20.494 334.076 19.714C333.644 18.934 333.428 18.034 333.428 17.014C333.428 15.994 333.65 15.094 334.094 14.314C334.55 13.534 335.168 12.934 335.948 12.514C336.728 12.082 337.598 11.866 338.558 11.866C339.518 11.866 340.388 12.082 341.168 12.514C341.948 12.934 342.56 13.534 343.004 14.314C343.46 15.094 343.688 15.994 343.688 17.014C343.688 18.034 343.454 18.934 342.986 19.714C342.53 20.494 341.906 21.1 341.114 21.532C340.334 21.952 339.458 22.162 338.486 22.162ZM338.486 19.966C338.942 19.966 339.368 19.858 339.764 19.642C340.172 19.414 340.496 19.078 340.736 18.634C340.976 18.19 341.096 17.65 341.096 17.014C341.096 16.066 340.844 15.34 340.34 14.836C339.848 14.32 339.242 14.062 338.522 14.062C337.802 14.062 337.196 14.32 336.704 14.836C336.224 15.34 335.984 16.066 335.984 17.014C335.984 17.962 336.218 18.694 336.686 19.21C337.166 19.714 337.766 19.966 338.486 19.966ZM349.965 22.162C349.005 22.162 348.141 21.952 347.373 21.532C346.605 21.1 345.999 20.494 345.555 19.714C345.123 18.934 344.907 18.034 344.907 17.014C344.907 15.994 345.129 15.094 345.573 14.314C346.029 13.534 346.647 12.934 347.427 12.514C348.207 12.082 349.077 11.866 350.037 11.866C350.997 11.866 351.867 12.082 352.647 12.514C353.427 12.934 354.039 13.534 354.483 14.314C354.939 15.094 355.167 15.994 355.167 17.014C355.167 18.034 354.933 18.934 354.465 19.714C354.009 20.494 353.385 21.1 352.593 21.532C351.813 21.952 350.937 22.162 349.965 22.162ZM349.965 19.966C350.421 19.966 350.847 19.858 351.243 19.642C351.651 19.414 351.975 19.078 352.215 18.634C352.455 18.19 352.575 17.65 352.575 17.014C352.575 16.066 352.323 15.34 351.819 14.836C351.327 14.32 350.721 14.062 350.001 14.062C349.281 14.062 348.675 14.32 348.183 14.836C347.703 15.34 347.463 16.066 347.463 17.014C347.463 17.962 347.697 18.694 348.165 19.21C348.645 19.714 349.245 19.966 349.965 19.966ZM362.919 22L359.535 17.752V22H357.015V8.68H359.535V16.258L362.883 12.028H366.159L361.767 17.032L366.195 22H362.919ZM368.805 10.84C368.361 10.84 367.989 10.702 367.689 10.426C367.401 10.138 367.257 9.784 367.257 9.364C367.257 8.944 367.401 8.596 367.689 8.32C367.989 8.032 368.361 7.888 368.805 7.888C369.249 7.888 369.615 8.032 369.903 8.32C370.203 8.596 370.353 8.944 370.353 9.364C370.353 9.784 370.203 10.138 369.903 10.426C369.615 10.702 369.249 10.84 368.805 10.84ZM370.047 12.028V22H367.527V12.028H370.047ZM381.807 16.798C381.807 17.158 381.783 17.482 381.735 17.77H374.445C374.505 18.49 374.757 19.054 375.201 19.462C375.645 19.87 376.191 20.074 376.839 20.074C377.775 20.074 378.441 19.672 378.837 18.868H381.555C381.267 19.828 380.715 20.62 379.899 21.244C379.083 21.856 378.081 22.162 376.893 22.162C375.933 22.162 375.069 21.952 374.301 21.532C373.545 21.1 372.951 20.494 372.519 19.714C372.099 18.934 371.889 18.034 371.889 17.014C371.889 15.982 372.099 15.076 372.519 14.296C372.939 13.516 373.527 12.916 374.283 12.496C375.039 12.076 375.909 11.866 376.893 11.866C377.841 11.866 378.687 12.07 379.431 12.478C380.187 12.886 380.769 13.468 381.177 14.224C381.597 14.968 381.807 15.826 381.807 16.798ZM379.197 16.078C379.185 15.43 378.951 14.914 378.495 14.53C378.039 14.134 377.481 13.936 376.821 13.936C376.197 13.936 375.669 14.128 375.237 14.512C374.817 14.884 374.559 15.406 374.463 16.078H379.197ZM387.462 22.162C386.646 22.162 385.914 22.018 385.266 21.73C384.618 21.43 384.102 21.028 383.718 20.524C383.346 20.02 383.142 19.462 383.106 18.85H385.644C385.692 19.234 385.878 19.552 386.202 19.804C386.538 20.056 386.952 20.182 387.444 20.182C387.924 20.182 388.296 20.086 388.56 19.894C388.836 19.702 388.974 19.456 388.974 19.156C388.974 18.832 388.806 18.592 388.47 18.436C388.146 18.268 387.624 18.088 386.904 17.896C386.16 17.716 385.548 17.53 385.068 17.338C384.6 17.146 384.192 16.852 383.844 16.456C383.508 16.06 383.34 15.526 383.34 14.854C383.34 14.302 383.496 13.798 383.808 13.342C384.132 12.886 384.588 12.526 385.176 12.262C385.776 11.998 386.478 11.866 387.282 11.866C388.47 11.866 389.418 12.166 390.126 12.766C390.834 13.354 391.224 14.152 391.296 15.16H388.884C388.848 14.764 388.68 14.452 388.38 14.224C388.092 13.984 387.702 13.864 387.21 13.864C386.754 13.864 386.4 13.948 386.148 14.116C385.908 14.284 385.788 14.518 385.788 14.818C385.788 15.154 385.956 15.412 386.292 15.592C386.628 15.76 387.15 15.934 387.858 16.114C388.578 16.294 389.172 16.48 389.64 16.672C390.108 16.864 390.51 17.164 390.846 17.572C391.194 17.968 391.374 18.496 391.386 19.156C391.386 19.732 391.224 20.248 390.9 20.704C390.588 21.16 390.132 21.52 389.532 21.784C388.944 22.036 388.254 22.162 387.462 22.162ZM400.264 13.468C400.588 13.012 401.032 12.634 401.596 12.334C402.172 12.022 402.826 11.866 403.558 11.866C404.41 11.866 405.178 12.076 405.862 12.496C406.558 12.916 407.104 13.516 407.5 14.296C407.908 15.064 408.112 15.958 408.112 16.978C408.112 17.998 407.908 18.904 407.5 19.696C407.104 20.476 406.558 21.082 405.862 21.514C405.178 21.946 404.41 22.162 403.558 22.162C402.826 22.162 402.178 22.012 401.614 21.712C401.062 21.412 400.612 21.034 400.264 20.578V26.752H397.744V12.028H400.264V13.468ZM405.538 16.978C405.538 16.378 405.412 15.862 405.16 15.43C404.92 14.986 404.596 14.65 404.188 14.422C403.792 14.194 403.36 14.08 402.892 14.08C402.436 14.08 402.004 14.2 401.596 14.44C401.2 14.668 400.876 15.004 400.624 15.448C400.384 15.892 400.264 16.414 400.264 17.014C400.264 17.614 400.384 18.136 400.624 18.58C400.876 19.024 401.2 19.366 401.596 19.606C402.004 19.834 402.436 19.948 402.892 19.948C403.36 19.948 403.792 19.828 404.188 19.588C404.596 19.348 404.92 19.006 405.16 18.562C405.412 18.118 405.538 17.59 405.538 16.978ZM414.371 22.162C413.411 22.162 412.547 21.952 411.779 21.532C411.011 21.1 410.405 20.494 409.961 19.714C409.529 18.934 409.313 18.034 409.313 17.014C409.313 15.994 409.535 15.094 409.979 14.314C410.435 13.534 411.053 12.934 411.833 12.514C412.613 12.082 413.483 11.866 414.443 11.866C415.403 11.866 416.273 12.082 417.053 12.514C417.833 12.934 418.445 13.534 418.889 14.314C419.345 15.094 419.573 15.994 419.573 17.014C419.573 18.034 419.339 18.934 418.871 19.714C418.415 20.494 417.791 21.1 416.999 21.532C416.219 21.952 415.343 22.162 414.371 22.162ZM414.371 19.966C414.827 19.966 415.253 19.858 415.649 19.642C416.057 19.414 416.381 19.078 416.621 18.634C416.861 18.19 416.981 17.65 416.981 17.014C416.981 16.066 416.729 15.34 416.225 14.836C415.733 14.32 415.127 14.062 414.407 14.062C413.687 14.062 413.081 14.32 412.589 14.836C412.109 15.34 411.869 16.066 411.869 17.014C411.869 17.962 412.103 18.694 412.571 19.21C413.051 19.714 413.651 19.966 414.371 19.966ZM423.942 8.68V22H421.422V8.68H423.942ZM427.709 10.84C427.265 10.84 426.893 10.702 426.593 10.426C426.305 10.138 426.161 9.784 426.161 9.364C426.161 8.944 426.305 8.596 426.593 8.32C426.893 8.032 427.265 7.888 427.709 7.888C428.153 7.888 428.519 8.032 428.807 8.32C429.107 8.596 429.257 8.944 429.257 9.364C429.257 9.784 429.107 10.138 428.807 10.426C428.519 10.702 428.153 10.84 427.709 10.84ZM428.951 12.028V22H426.431V12.028H428.951ZM430.793 17.014C430.793 15.982 431.003 15.082 431.423 14.314C431.843 13.534 432.425 12.934 433.169 12.514C433.913 12.082 434.765 11.866 435.725 11.866C436.961 11.866 437.981 12.178 438.785 12.802C439.601 13.414 440.147 14.278 440.423 15.394H437.705C437.561 14.962 437.315 14.626 436.967 14.386C436.631 14.134 436.211 14.008 435.707 14.008C434.987 14.008 434.417 14.272 433.997 14.8C433.577 15.316 433.367 16.054 433.367 17.014C433.367 17.962 433.577 18.7 433.997 19.228C434.417 19.744 434.987 20.002 435.707 20.002C436.727 20.002 437.393 19.546 437.705 18.634H440.423C440.147 19.714 439.601 20.572 438.785 21.208C437.969 21.844 436.949 22.162 435.725 22.162C434.765 22.162 433.913 21.952 433.169 21.532C432.425 21.1 431.843 20.5 431.423 19.732C431.003 18.952 430.793 18.046 430.793 17.014ZM451.809 12.028L445.635 26.716H442.953L445.113 21.748L441.117 12.028H443.943L446.517 18.994L449.127 12.028H451.809Z" fill="white"/>
<path d="M491.792 9.436V11.47H488.444V22H485.924V11.47H482.576V9.436H491.792ZM502.901 16.798C502.901 17.158 502.877 17.482 502.829 17.77H495.539C495.599 18.49 495.851 19.054 496.295 19.462C496.739 19.87 497.285 20.074 497.933 20.074C498.869 20.074 499.535 19.672 499.931 18.868H502.649C502.361 19.828 501.809 20.62 500.993 21.244C500.177 21.856 499.175 22.162 497.987 22.162C497.027 22.162 496.163 21.952 495.395 21.532C494.639 21.1 494.045 20.494 493.613 19.714C493.193 18.934 492.983 18.034 492.983 17.014C492.983 15.982 493.193 15.076 493.613 14.296C494.033 13.516 494.621 12.916 495.377 12.496C496.133 12.076 497.003 11.866 497.987 11.866C498.935 11.866 499.781 12.07 500.525 12.478C501.281 12.886 501.863 13.468 502.271 14.224C502.691 14.968 502.901 15.826 502.901 16.798ZM500.291 16.078C500.279 15.43 500.045 14.914 499.589 14.53C499.133 14.134 498.575 13.936 497.915 13.936C497.291 13.936 496.763 14.128 496.331 14.512C495.911 14.884 495.653 15.406 495.557 16.078H500.291ZM507.26 13.576C507.584 13.048 508.004 12.634 508.52 12.334C509.048 12.034 509.648 11.884 510.32 11.884V14.53H509.654C508.862 14.53 508.262 14.716 507.854 15.088C507.458 15.46 507.26 16.108 507.26 17.032V22H504.74V12.028H507.26V13.576ZM524.401 11.884C525.625 11.884 526.609 12.262 527.353 13.018C528.109 13.762 528.487 14.806 528.487 16.15V22H525.967V16.492C525.967 15.712 525.769 15.118 525.373 14.71C524.977 14.29 524.437 14.08 523.753 14.08C523.069 14.08 522.523 14.29 522.115 14.71C521.719 15.118 521.521 15.712 521.521 16.492V22H519.001V16.492C519.001 15.712 518.803 15.118 518.407 14.71C518.011 14.29 517.471 14.08 516.787 14.08C516.091 14.08 515.539 14.29 515.131 14.71C514.735 15.118 514.537 15.712 514.537 16.492V22H512.017V12.028H514.537V13.234C514.861 12.814 515.275 12.484 515.779 12.244C516.295 12.004 516.859 11.884 517.471 11.884C518.251 11.884 518.947 12.052 519.559 12.388C520.171 12.712 520.645 13.18 520.981 13.792C521.305 13.216 521.773 12.754 522.385 12.406C523.009 12.058 523.681 11.884 524.401 11.884ZM534.695 22.162C533.879 22.162 533.147 22.018 532.499 21.73C531.851 21.43 531.335 21.028 530.951 20.524C530.579 20.02 530.375 19.462 530.339 18.85H532.877C532.925 19.234 533.111 19.552 533.435 19.804C533.771 20.056 534.185 20.182 534.677 20.182C535.157 20.182 535.529 20.086 535.793 19.894C536.069 19.702 536.207 19.456 536.207 19.156C536.207 18.832 536.039 18.592 535.703 18.436C535.379 18.268 534.857 18.088 534.137 17.896C533.393 17.716 532.781 17.53 532.301 17.338C531.833 17.146 531.425 16.852 531.077 16.456C530.741 16.06 530.573 15.526 530.573 14.854C530.573 14.302 530.729 13.798 531.041 13.342C531.365 12.886 531.821 12.526 532.409 12.262C533.009 11.998 533.711 11.866 534.515 11.866C535.703 11.866 536.651 12.166 537.359 12.766C538.067 13.354 538.457 14.152 538.529 15.16H536.117C536.081 14.764 535.913 14.452 535.613 14.224C535.325 13.984 534.935 13.864 534.443 13.864C533.987 13.864 533.633 13.948 533.381 14.116C533.141 14.284 533.021 14.518 533.021 14.818C533.021 15.154 533.189 15.412 533.525 15.592C533.861 15.76 534.383 15.934 535.091 16.114C535.811 16.294 536.405 16.48 536.873 16.672C537.341 16.864 537.743 17.164 538.079 17.572C538.427 17.968 538.607 18.496 538.619 19.156C538.619 19.732 538.457 20.248 538.133 20.704C537.821 21.16 537.365 21.52 536.765 21.784C536.177 22.036 535.487 22.162 534.695 22.162ZM549.404 22.162C548.444 22.162 547.58 21.952 546.812 21.532C546.044 21.1 545.438 20.494 544.994 19.714C544.562 18.934 544.346 18.034 544.346 17.014C544.346 15.994 544.568 15.094 545.012 14.314C545.468 13.534 546.086 12.934 546.866 12.514C547.646 12.082 548.516 11.866 549.476 11.866C550.436 11.866 551.306 12.082 552.086 12.514C552.866 12.934 553.478 13.534 553.922 14.314C554.378 15.094 554.606 15.994 554.606 17.014C554.606 18.034 554.372 18.934 553.904 19.714C553.448 20.494 552.824 21.1 552.032 21.532C551.252 21.952 550.376 22.162 549.404 22.162ZM549.404 19.966C549.86 19.966 550.286 19.858 550.682 19.642C551.09 19.414 551.414 19.078 551.654 18.634C551.894 18.19 552.014 17.65 552.014 17.014C552.014 16.066 551.762 15.34 551.258 14.836C550.766 14.32 550.16 14.062 549.44 14.062C548.72 14.062 548.114 14.32 547.622 14.836C547.142 15.34 546.902 16.066 546.902 17.014C546.902 17.962 547.136 18.694 547.604 19.21C548.084 19.714 548.684 19.966 549.404 19.966ZM561.027 14.098H559.281V22H556.725V14.098H555.591V12.028H556.725V11.524C556.725 10.3 557.073 9.4 557.769 8.824C558.465 8.248 559.515 7.978 560.919 8.014V10.138C560.307 10.126 559.881 10.228 559.641 10.444C559.401 10.66 559.281 11.05 559.281 11.614V12.028H561.027V14.098ZM576.363 12.028V22H573.825V20.74C573.501 21.172 573.075 21.514 572.547 21.766C572.031 22.006 571.467 22.126 570.855 22.126C570.075 22.126 569.385 21.964 568.785 21.64C568.185 21.304 567.711 20.818 567.363 20.182C567.027 19.534 566.859 18.766 566.859 17.878V12.028H569.379V17.518C569.379 18.31 569.577 18.922 569.973 19.354C570.369 19.774 570.909 19.984 571.593 19.984C572.289 19.984 572.835 19.774 573.231 19.354C573.627 18.922 573.825 18.31 573.825 17.518V12.028H576.363ZM582.665 22.162C581.849 22.162 581.117 22.018 580.469 21.73C579.821 21.43 579.305 21.028 578.921 20.524C578.549 20.02 578.345 19.462 578.309 18.85H580.847C580.895 19.234 581.081 19.552 581.405 19.804C581.741 20.056 582.155 20.182 582.647 20.182C583.127 20.182 583.499 20.086 583.763 19.894C584.039 19.702 584.177 19.456 584.177 19.156C584.177 18.832 584.009 18.592 583.673 18.436C583.349 18.268 582.827 18.088 582.107 17.896C581.363 17.716 580.751 17.53 580.271 17.338C579.803 17.146 579.395 16.852 579.047 16.456C578.711 16.06 578.543 15.526 578.543 14.854C578.543 14.302 578.699 13.798 579.011 13.342C579.335 12.886 579.791 12.526 580.379 12.262C580.979 11.998 581.681 11.866 582.485 11.866C583.673 11.866 584.621 12.166 585.329 12.766C586.037 13.354 586.427 14.152 586.499 15.16H584.087C584.051 14.764 583.883 14.452 583.583 14.224C583.295 13.984 582.905 13.864 582.413 13.864C581.957 13.864 581.603 13.948 581.351 14.116C581.111 14.284 580.991 14.518 580.991 14.818C580.991 15.154 581.159 15.412 581.495 15.592C581.831 15.76 582.353 15.934 583.061 16.114C583.781 16.294 584.375 16.48 584.843 16.672C585.311 16.864 585.713 17.164 586.049 17.572C586.397 17.968 586.577 18.496 586.589 19.156C586.589 19.732 586.427 20.248 586.103 20.704C585.791 21.16 585.335 21.52 584.735 21.784C584.147 22.036 583.457 22.162 582.665 22.162ZM597.928 16.798C597.928 17.158 597.904 17.482 597.856 17.77H590.566C590.626 18.49 590.878 19.054 591.322 19.462C591.766 19.87 592.312 20.074 592.96 20.074C593.896 20.074 594.562 19.672 594.958 18.868H597.676C597.388 19.828 596.836 20.62 596.02 21.244C595.204 21.856 594.202 22.162 593.014 22.162C592.054 22.162 591.19 21.952 590.422 21.532C589.666 21.1 589.072 20.494 588.64 19.714C588.22 18.934 588.01 18.034 588.01 17.014C588.01 15.982 588.22 15.076 588.64 14.296C589.06 13.516 589.648 12.916 590.404 12.496C591.16 12.076 592.03 11.866 593.014 11.866C593.962 11.866 594.808 12.07 595.552 12.478C596.308 12.886 596.89 13.468 597.298 14.224C597.718 14.968 597.928 15.826 597.928 16.798ZM595.318 16.078C595.306 15.43 595.072 14.914 594.616 14.53C594.16 14.134 593.602 13.936 592.942 13.936C592.318 13.936 591.79 14.128 591.358 14.512C590.938 14.884 590.68 15.406 590.584 16.078H595.318Z" fill="white"/>
</svg>
